<svg xmlns="http://www.w3.org/2000/svg" xmlns:xlink="http://www.w3.org/1999/xlink" width="230" zoomAndPan="magnify" viewBox="0 0 172.5 83.249999" height="111" preserveAspectRatio="xMidYMid meet" version="1.0"><path fill="#000000" d="M 69.210938 22.429688 L 67.777344 19.722656 C 67.34375 18.910156 67.253906 18.476562 67.253906 18.476562 L 67.210938 18.476562 C 67.210938 18.476562 67.269531 18.914062 67.269531 19.765625 L 67.269531 24.183594 L 66.335938 24.183594 L 66.335938 17.148438 L 67.492188 17.148438 L 69.277344 20.691406 C 69.515625 21.167969 69.589844 21.484375 69.589844 21.484375 L 69.632812 21.484375 C 69.632812 21.484375 69.710938 21.167969 69.949219 20.691406 L 71.730469 17.148438 L 72.820312 17.148438 L 72.820312 24.183594 L 71.886719 24.183594 L 71.886719 19.765625 C 71.886719 18.914062 71.949219 18.476562 71.949219 18.476562 L 71.902344 18.476562 C 71.902344 18.476562 71.804688 18.910156 71.378906 19.722656 L 69.949219 22.429688 Z M 69.210938 22.429688 " fill-opacity="1" fill-rule="nonzero"/><path fill="#000000" d="M 74.007812 21.394531 C 74.007812 19.519531 74.976562 18.535156 76.46875 18.535156 C 77.960938 18.535156 78.933594 19.511719 78.933594 21.394531 C 78.933594 23.273438 77.960938 24.335938 76.46875 24.335938 C 74.976562 24.335938 74.007812 23.28125 74.007812 21.394531 Z M 74.902344 21.394531 C 74.902344 22.863281 75.425781 23.617188 76.46875 23.617188 C 77.515625 23.617188 78.035156 22.863281 78.035156 21.394531 C 78.035156 19.921875 77.5 19.28125 76.46875 19.28125 C 75.441406 19.28125 74.902344 19.960938 74.902344 21.394531 Z M 74.902344 21.394531 " fill-opacity="1" fill-rule="nonzero"/><path fill="#000000" d="M 80.847656 19.730469 C 81.148438 18.910156 81.78125 18.535156 82.617188 18.535156 C 83.550781 18.535156 84.3125 19.035156 84.3125 20.230469 L 84.3125 24.183594 L 83.402344 24.183594 L 83.402344 20.460938 C 83.402344 19.757812 83.042969 19.328125 82.363281 19.328125 C 81.632812 19.328125 80.96875 19.707031 80.96875 20.976562 L 80.96875 24.191406 L 80.058594 24.191406 L 80.058594 18.675781 L 80.738281 18.675781 L 80.84375 19.738281 Z M 80.847656 19.730469 " fill-opacity="1" fill-rule="nonzero"/><path fill="#000000" d="M 88.921875 24.019531 C 88.601562 24.222656 88.160156 24.335938 87.707031 24.335938 C 86.738281 24.335938 86.191406 23.804688 86.191406 22.847656 L 86.191406 19.394531 L 85.394531 19.394531 L 85.394531 18.660156 L 86.191406 18.660156 L 86.191406 17.492188 L 87.109375 17.371094 L 87.109375 18.660156 L 88.742188 18.660156 L 88.742188 19.394531 L 87.09375 19.394531 L 87.09375 22.675781 C 87.09375 23.289062 87.371094 23.550781 87.832031 23.550781 C 88.191406 23.550781 88.429688 23.46875 88.742188 23.265625 Z M 88.921875 24.019531 " fill-opacity="1" fill-rule="nonzero"/><path fill="#000000" d="M 93.839844 23.003906 C 93.839844 23.4375 94.042969 23.519531 94.257812 23.519531 C 94.394531 23.519531 94.476562 23.503906 94.558594 23.476562 L 94.558594 24.207031 C 94.421875 24.246094 94.273438 24.28125 94.0625 24.28125 C 93.453125 24.28125 93.0625 24.003906 92.988281 23.386719 C 92.707031 24.082031 92.035156 24.339844 91.355469 24.339844 C 90.386719 24.339844 89.699219 23.789062 89.699219 22.855469 C 89.699219 21.640625 90.632812 20.921875 92.9375 21.027344 L 92.9375 20.289062 C 92.9375 19.550781 92.460938 19.289062 91.824219 19.289062 C 91.191406 19.289062 90.765625 19.601562 90.714844 20.207031 L 89.878906 20.085938 C 89.960938 18.914062 90.996094 18.542969 91.929688 18.542969 C 92.863281 18.542969 93.839844 18.921875 93.839844 20.207031 L 93.839844 23.011719 Z M 92.929688 21.667969 C 91.332031 21.632812 90.601562 21.984375 90.601562 22.746094 C 90.601562 23.246094 90.921875 23.625 91.570312 23.625 C 92.222656 23.625 92.929688 23.230469 92.929688 22.550781 Z M 92.929688 21.667969 " fill-opacity="1" fill-rule="nonzero"/><path fill="#000000" d="M 99.273438 19.011719 C 99.546875 18.894531 99.644531 18.574219 99.707031 18.175781 L 100.519531 18.460938 C 100.4375 18.984375 100.085938 19.339844 99.625 19.4375 C 99.800781 19.722656 99.882812 20.082031 99.882812 20.492188 C 99.882812 21.78125 98.882812 22.402344 97.699219 22.402344 C 97.414062 22.402344 97.125 22.363281 96.96875 22.304688 C 96.667969 22.460938 96.550781 22.648438 96.550781 22.917969 C 96.550781 23.257812 96.773438 23.417969 97.191406 23.417969 L 98.464844 23.417969 C 99.707031 23.417969 100.363281 23.917969 100.363281 24.921875 C 100.363281 26.335938 98.847656 26.699219 97.445312 26.699219 C 96.265625 26.699219 95.078125 26.386719 95.078125 25.230469 C 95.078125 24.5 95.617188 23.992188 96.488281 23.917969 C 96.011719 23.855469 95.757812 23.519531 95.757812 23.09375 C 95.757812 22.667969 95.972656 22.320312 96.550781 22.175781 C 95.890625 21.878906 95.496094 21.296875 95.496094 20.492188 C 95.496094 19.273438 96.371094 18.535156 97.660156 18.535156 C 98.316406 18.535156 98.871094 18.691406 99.257812 19.011719 Z M 97.527344 26.050781 C 98.644531 26.050781 99.496094 25.828125 99.496094 25.050781 C 99.496094 24.59375 99.257812 24.230469 98.464844 24.230469 L 97.332031 24.230469 C 96.4375 24.230469 95.960938 24.527344 95.960938 25.183594 C 95.960938 25.839844 96.636719 26.058594 97.527344 26.058594 Z M 97.667969 21.738281 C 98.460938 21.738281 98.980469 21.339844 98.980469 20.484375 C 98.980469 19.625 98.460938 19.207031 97.667969 19.214844 C 96.871094 19.230469 96.390625 19.667969 96.390625 20.484375 C 96.390625 21.238281 96.871094 21.738281 97.667969 21.738281 Z M 97.667969 21.738281 " fill-opacity="1" fill-rule="nonzero"/><path fill="#000000" d="M 104.570312 22.3125 C 104.710938 23.230469 105.285156 23.609375 106.085938 23.609375 C 106.882812 23.609375 107.457031 23.230469 107.457031 22.5 C 107.457031 21.828125 107.136719 21.5 105.90625 21.027344 C 104.988281 20.683594 103.9375 20.289062 103.9375 18.9375 C 103.9375 17.511719 105.046875 16.992188 106.101562 16.992188 C 107.347656 16.992188 108.285156 17.503906 108.390625 18.855469 L 107.480469 18.996094 C 107.40625 18.175781 106.867188 17.722656 106.109375 17.722656 C 105.347656 17.722656 104.855469 18.140625 104.855469 18.855469 C 104.855469 19.648438 105.472656 19.886719 106.503906 20.273438 C 107.457031 20.648438 108.398438 21.066406 108.398438 22.363281 C 108.398438 23.664062 107.339844 24.320312 106.046875 24.320312 C 104.652344 24.320312 103.863281 23.746094 103.683594 22.453125 L 104.5625 22.296875 Z M 104.570312 22.3125 " fill-opacity="1" fill-rule="nonzero"/><path fill="#000000" d="M 112.59375 24.019531 C 112.269531 24.222656 111.824219 24.335938 111.375 24.335938 C 110.40625 24.335938 109.859375 23.804688 109.859375 22.847656 L 109.859375 19.394531 L 109.0625 19.394531 L 109.0625 18.660156 L 109.859375 18.660156 L 109.859375 17.492188 L 110.777344 17.371094 L 110.777344 18.660156 L 112.414062 18.660156 L 112.414062 19.394531 L 110.765625 19.394531 L 110.765625 22.675781 C 110.765625 23.289062 111.039062 23.550781 111.503906 23.550781 C 111.859375 23.550781 112.097656 23.46875 112.414062 23.265625 Z M 112.59375 24.019531 " fill-opacity="1" fill-rule="nonzero"/><path fill="#000000" d="M 114.167969 16.222656 C 114.523438 16.222656 114.824219 16.503906 114.824219 16.878906 C 114.824219 17.222656 114.523438 17.519531 114.167969 17.519531 C 113.808594 17.519531 113.53125 17.222656 113.53125 16.878906 C 113.53125 16.503906 113.816406 16.222656 114.167969 16.222656 Z M 114.636719 18.667969 L 114.636719 24.183594 L 113.726562 24.183594 L 113.726562 18.667969 Z M 114.636719 18.667969 " fill-opacity="1" fill-rule="nonzero"/><path fill="#000000" d="M 115.949219 19.394531 L 115.949219 18.660156 L 116.75 18.660156 L 116.75 17.96875 C 116.75 16.574219 117.644531 16.117188 118.539062 16.117188 C 118.957031 16.117188 119.316406 16.214844 119.613281 16.332031 L 119.417969 17.125 C 119.136719 16.96875 118.90625 16.886719 118.5625 16.886719 C 117.988281 16.886719 117.652344 17.199219 117.652344 18.019531 L 117.652344 18.667969 L 119.0625 18.667969 L 119.0625 19.402344 L 117.652344 19.402344 L 117.652344 24.191406 L 116.742188 24.191406 L 116.742188 19.402344 L 115.941406 19.402344 Z M 115.949219 19.394531 " fill-opacity="1" fill-rule="nonzero"/><path fill="#000000" d="M 122.5625 24.019531 C 122.238281 24.222656 121.800781 24.335938 121.34375 24.335938 C 120.375 24.335938 119.828125 23.804688 119.828125 22.847656 L 119.828125 19.394531 L 119.03125 19.394531 L 119.03125 18.660156 L 119.828125 18.660156 L 119.828125 17.492188 L 120.746094 17.371094 L 120.746094 18.660156 L 122.382812 18.660156 L 122.382812 19.394531 L 120.734375 19.394531 L 120.734375 22.675781 C 120.734375 23.289062 121.007812 23.550781 121.472656 23.550781 C 121.828125 23.550781 122.066406 23.46875 122.382812 23.265625 Z M 122.5625 24.019531 " fill-opacity="1" fill-rule="nonzero"/><path fill="#000000" d="M 126.820312 23.199219 C 126.539062 24.019531 125.964844 24.335938 125.128906 24.335938 C 124.128906 24.335938 123.457031 23.820312 123.457031 22.5 L 123.457031 18.675781 L 124.367188 18.675781 L 124.367188 22.417969 C 124.367188 23.289062 124.703125 23.671875 125.425781 23.671875 C 126.046875 23.671875 126.800781 23.109375 126.800781 22.035156 L 126.800781 18.675781 L 127.710938 18.675781 L 127.710938 24.191406 L 126.933594 24.191406 L 126.828125 23.199219 Z M 126.820312 23.199219 " fill-opacity="1" fill-rule="nonzero"/><path fill="#000000" d="M 130.046875 19.730469 C 130.34375 18.910156 130.976562 18.535156 131.8125 18.535156 C 132.746094 18.535156 133.507812 19.035156 133.507812 20.230469 L 133.507812 24.183594 L 132.597656 24.183594 L 132.597656 20.460938 C 132.597656 19.757812 132.238281 19.328125 131.558594 19.328125 C 130.828125 19.328125 130.164062 19.707031 130.164062 20.976562 L 130.164062 24.191406 L 129.253906 24.191406 L 129.253906 18.675781 L 129.933594 18.675781 L 130.039062 19.738281 Z M 130.046875 19.730469 " fill-opacity="1" fill-rule="nonzero"/><path fill="#000000" d="M 138.582031 19.011719 C 138.855469 18.894531 138.953125 18.574219 139.015625 18.175781 L 139.828125 18.460938 C 139.746094 18.984375 139.394531 19.339844 138.933594 19.4375 C 139.109375 19.722656 139.191406 20.082031 139.191406 20.492188 C 139.191406 21.78125 138.1875 22.402344 137.007812 22.402344 C 136.722656 22.402344 136.433594 22.363281 136.277344 22.304688 C 135.976562 22.460938 135.859375 22.648438 135.859375 22.917969 C 135.859375 23.257812 136.082031 23.417969 136.507812 23.417969 L 137.78125 23.417969 C 139.023438 23.417969 139.679688 23.917969 139.679688 24.921875 C 139.679688 26.335938 138.164062 26.699219 136.761719 26.699219 C 135.582031 26.699219 134.394531 26.386719 134.394531 25.230469 C 134.394531 24.5 134.933594 23.992188 135.804688 23.917969 C 135.328125 23.855469 135.074219 23.519531 135.074219 23.09375 C 135.074219 22.667969 135.289062 22.320312 135.863281 22.175781 C 135.207031 21.878906 134.8125 21.296875 134.8125 20.492188 C 134.8125 19.273438 135.6875 18.535156 136.976562 18.535156 C 137.632812 18.535156 138.1875 18.691406 138.574219 19.011719 Z M 136.84375 26.050781 C 137.96875 26.050781 138.8125 25.828125 138.8125 25.050781 C 138.8125 24.59375 138.574219 24.230469 137.78125 24.230469 L 136.648438 24.230469 C 135.753906 24.230469 135.277344 24.527344 135.277344 25.183594 C 135.277344 25.839844 135.953125 26.058594 136.84375 26.058594 Z M 136.984375 21.738281 C 137.777344 21.738281 138.296875 21.339844 138.296875 20.484375 C 138.296875 19.625 137.777344 19.207031 136.984375 19.214844 C 136.1875 19.230469 135.707031 19.667969 135.707031 20.484375 C 135.707031 21.238281 136.1875 21.738281 136.984375 21.738281 Z M 136.984375 21.738281 " fill-opacity="1" fill-rule="nonzero"/><path fill="#000000" d="M 71.96875 30.214844 L 71.96875 34.910156 C 71.96875 36.78125 70.632812 37.394531 69.140625 37.394531 C 67.648438 37.394531 66.300781 36.78125 66.300781 34.910156 L 66.300781 30.214844 L 67.746094 30.214844 L 67.746094 34.515625 C 67.746094 35.605469 68.121094 36.1875 69.140625 36.1875 C 70.164062 36.1875 70.53125 35.605469 70.53125 34.515625 L 70.53125 30.214844 L 71.976562 30.214844 Z M 71.96875 30.214844 " fill-opacity="1" fill-rule="nonzero"/><path fill="#000000" d="M 76.707031 33.1875 C 76.527344 33.140625 76.363281 33.109375 76.132812 33.109375 C 75.453125 33.109375 74.679688 33.515625 74.679688 34.625 L 74.679688 37.246094 L 73.261719 37.246094 L 73.261719 31.730469 L 74.492188 31.730469 L 74.65625 33.238281 C 74.878906 32.269531 75.476562 31.542969 76.859375 31.609375 L 76.714844 33.1875 Z M 76.707031 33.1875 " fill-opacity="1" fill-rule="nonzero"/><path fill="#000000" d="M 78.722656 37.246094 L 77.746094 37.246094 L 77.746094 29.265625 L 79.164062 29.265625 L 79.164062 32.769531 C 79.460938 31.933594 80.164062 31.597656 80.9375 31.597656 C 82.289062 31.597656 83.082031 32.589844 83.082031 34.355469 C 83.082031 36.125 82.222656 37.394531 80.730469 37.394531 C 79.78125 37.394531 79.261719 36.976562 79.082031 36.453125 L 78.722656 37.253906 Z M 79.164062 35.027344 C 79.164062 36.023438 79.78125 36.359375 80.3125 36.359375 C 81.042969 36.359375 81.648438 35.761719 81.648438 34.492188 C 81.648438 33.222656 81.171875 32.746094 80.417969 32.746094 C 79.761719 32.746094 79.164062 33.246094 79.164062 34.140625 Z M 79.164062 35.027344 " fill-opacity="1" fill-rule="nonzero"/><path fill="#000000" d="M 88.566406 35.691406 C 88.566406 36.089844 88.730469 36.207031 88.96875 36.207031 C 89.101562 36.207031 89.191406 36.171875 89.304688 36.125 L 89.304688 37.179688 C 89.101562 37.296875 88.839844 37.34375 88.503906 37.34375 C 87.828125 37.34375 87.394531 37.082031 87.25 36.46875 C 86.992188 37.148438 86.371094 37.386719 85.640625 37.386719 C 84.664062 37.386719 84.003906 36.828125 84.003906 35.878906 C 84.003906 34.648438 84.984375 33.96875 87.148438 34.089844 L 87.148438 33.507812 C 87.148438 32.96875 86.886719 32.679688 86.394531 32.679688 C 85.902344 32.679688 85.632812 32.992188 85.59375 33.515625 L 84.199219 33.261719 C 84.28125 32.089844 85.289062 31.589844 86.46875 31.589844 C 87.738281 31.589844 88.574219 32.125 88.574219 33.363281 L 88.574219 35.6875 Z M 87.140625 34.894531 C 85.894531 34.855469 85.417969 35.171875 85.417969 35.730469 C 85.417969 36.105469 85.667969 36.363281 86.117188 36.363281 C 86.566406 36.363281 87.132812 36.109375 87.132812 35.542969 L 87.132812 34.894531 Z M 87.140625 34.894531 " fill-opacity="1" fill-rule="nonzero"/><path fill="#000000" d="M 91.675781 32.789062 C 91.976562 31.960938 92.59375 31.597656 93.445312 31.597656 C 94.296875 31.597656 95.078125 32.097656 95.078125 33.328125 L 95.078125 37.246094 L 93.652344 37.246094 L 93.652344 33.828125 C 93.652344 33.191406 93.4375 32.796875 92.839844 32.796875 C 92.242188 32.796875 91.730469 33.109375 91.730469 34.15625 L 91.730469 37.238281 L 90.3125 37.238281 L 90.3125 31.722656 L 91.503906 31.722656 L 91.667969 32.78125 Z M 91.675781 32.789062 " fill-opacity="1" fill-rule="nonzero"/><path fill="#000000" d="M 99.871094 35.492188 L 101.085938 35.886719 C 100.824219 37 99.847656 37.394531 98.773438 37.394531 C 97.226562 37.394531 96.183594 36.363281 96.183594 34.566406 C 96.183594 32.769531 97.199219 31.601562 98.808594 31.601562 C 100.324219 31.601562 101.09375 32.617188 101.09375 34.015625 C 101.09375 34.273438 101.070312 34.535156 101.011719 34.753906 L 97.554688 34.753906 C 97.59375 35.671875 98.019531 36.289062 98.824219 36.289062 C 99.316406 36.289062 99.683594 36.097656 99.878906 35.492188 Z M 99.710938 33.902344 C 99.726562 33.820312 99.726562 33.769531 99.726562 33.699219 C 99.726562 33.109375 99.382812 32.671875 98.75 32.671875 C 98.117188 32.671875 97.675781 33.148438 97.59375 33.902344 L 99.71875 33.902344 Z M 99.710938 33.902344 " fill-opacity="1" fill-rule="nonzero"/><path fill="#000000" d="M 109.039062 37.246094 C 108.847656 37.066406 108.765625 36.828125 108.695312 36.535156 L 108.421875 35.425781 C 108.265625 34.753906 107.941406 34.632812 107.347656 34.632812 L 106.570312 34.632812 L 106.570312 37.238281 L 105.121094 37.238281 L 105.121094 30.199219 L 107.785156 30.199219 C 109.375 30.199219 110.277344 30.8125 110.277344 32.304688 C 110.277344 33.402344 109.605469 33.992188 108.710938 34.058594 L 108.710938 34.097656 C 109.367188 34.191406 109.710938 34.46875 109.890625 35.148438 L 110.25 36.484375 C 110.332031 36.769531 110.429688 37.015625 110.644531 37.238281 L 109.03125 37.238281 Z M 106.5625 33.4375 L 107.683594 33.4375 C 108.414062 33.4375 108.792969 33.15625 108.792969 32.4375 C 108.792969 31.804688 108.421875 31.4375 107.695312 31.4375 L 106.5625 31.4375 L 106.5625 33.445312 Z M 106.5625 33.4375 " fill-opacity="1" fill-rule="nonzero"/><path fill="#000000" d="M 115.808594 35.691406 C 115.808594 36.089844 115.972656 36.207031 116.210938 36.207031 C 116.34375 36.207031 116.433594 36.171875 116.546875 36.125 L 116.546875 37.179688 C 116.34375 37.296875 116.085938 37.34375 115.75 37.34375 C 115.070312 37.34375 114.636719 37.082031 114.496094 36.46875 C 114.234375 37.148438 113.613281 37.386719 112.882812 37.386719 C 111.90625 37.386719 111.25 36.828125 111.25 35.878906 C 111.25 34.648438 112.226562 33.96875 114.390625 34.089844 L 114.390625 33.507812 C 114.390625 32.96875 114.128906 32.679688 113.636719 32.679688 C 113.144531 32.679688 112.875 32.992188 112.839844 33.515625 L 111.441406 33.261719 C 111.523438 32.089844 112.53125 31.589844 113.710938 31.589844 C 114.980469 31.589844 115.816406 32.125 115.816406 33.363281 L 115.816406 35.6875 Z M 112.433594 29.289062 C 112.914062 29.289062 113.285156 29.589844 113.285156 30.125 C 113.285156 30.664062 112.914062 30.960938 112.433594 30.960938 C 111.996094 30.960938 111.613281 30.648438 111.613281 30.125 C 111.613281 29.601562 111.996094 29.289062 112.433594 29.289062 Z M 114.382812 34.894531 C 113.144531 34.855469 112.660156 35.171875 112.660156 35.730469 C 112.660156 36.105469 112.914062 36.363281 113.367188 36.363281 C 113.824219 36.363281 114.382812 36.109375 114.382812 35.542969 Z M 114.957031 29.304688 C 115.433594 29.304688 115.792969 29.601562 115.792969 30.140625 C 115.792969 30.679688 115.433594 30.960938 114.957031 30.960938 C 114.480469 30.960938 114.128906 30.648438 114.128906 30.140625 C 114.128906 29.632812 114.503906 29.304688 114.957031 29.304688 Z M 114.957031 29.304688 " fill-opacity="1" fill-rule="nonzero"/><path fill="#000000" d="M 120.828125 36.230469 C 120.613281 37 120.089844 37.386719 119.121094 37.386719 C 118.152344 37.386719 117.464844 36.886719 117.464844 35.597656 L 117.464844 31.722656 L 118.882812 31.722656 L 118.882812 35.238281 C 118.882812 35.941406 119.121094 36.3125 119.71875 36.3125 C 120.277344 36.3125 120.808594 35.851562 120.808594 34.78125 L 120.808594 31.722656 L 122.226562 31.722656 L 122.226562 37.238281 L 120.992188 37.238281 L 120.828125 36.222656 Z M 120.828125 36.230469 " fill-opacity="1" fill-rule="nonzero"/><path fill="#000000" d="M 130.050781 31.597656 C 130.960938 31.597656 131.65625 32.097656 131.65625 33.304688 L 131.65625 37.246094 L 130.230469 37.246094 L 130.230469 33.828125 C 130.230469 33.191406 130.015625 32.796875 129.433594 32.796875 C 128.894531 32.796875 128.417969 33.140625 128.417969 34.15625 L 128.417969 37.238281 L 126.984375 37.238281 L 126.984375 33.820312 C 126.984375 33.1875 126.785156 32.789062 126.195312 32.789062 C 125.65625 32.789062 125.164062 33.148438 125.164062 34.148438 L 125.164062 37.230469 L 123.738281 37.230469 L 123.738281 31.714844 L 124.933594 31.714844 L 125.097656 32.773438 C 125.394531 31.9375 126.007812 31.582031 126.804688 31.582031 C 127.539062 31.582031 128.132812 31.894531 128.277344 32.789062 C 128.558594 31.953125 129.253906 31.582031 130.046875 31.582031 Z M 130.050781 31.597656 " fill-opacity="1" fill-rule="nonzero"/><path fill="#000000" d="M 136.492188 35.492188 L 137.707031 35.886719 C 137.445312 37 136.46875 37.394531 135.386719 37.394531 C 133.851562 37.394531 132.796875 36.363281 132.796875 34.566406 C 132.796875 32.769531 133.8125 31.601562 135.425781 31.601562 C 136.941406 31.601562 137.707031 32.617188 137.707031 34.015625 C 137.707031 34.273438 137.6875 34.535156 137.625 34.753906 L 134.171875 34.753906 C 134.207031 35.671875 134.632812 36.289062 135.441406 36.289062 C 135.933594 36.289062 136.296875 36.097656 136.492188 35.492188 Z M 136.34375 33.902344 C 136.359375 33.820312 136.359375 33.769531 136.359375 33.699219 C 136.359375 33.109375 136.015625 32.671875 135.378906 32.671875 C 134.746094 32.671875 134.304688 33.148438 134.222656 33.902344 L 136.351562 33.902344 Z M 136.34375 33.902344 " fill-opacity="1" fill-rule="nonzero"/><path fill="#6ebe28" d="M 18.617188 14.476562 L 23.667969 19.15625 L 30.824219 16.207031 L 25.65625 11.707031 Z M 18.617188 14.476562 " fill-opacity="1" fill-rule="nonzero"/><path fill="#6ebe28" d="M 54.097656 6.617188 L 48.59375 2.699219 L 42.421875 5.125 L 34.585938 20.101562 L 39.347656 25.042969 L 47.847656 9.191406 Z M 54.097656 6.617188 " fill-opacity="1" fill-rule="nonzero"/></svg>