<?xml version="1.0" encoding="UTF-8"?>
<svg xmlns="http://www.w3.org/2000/svg" width="81mm" height="39mm" viewBox="0 0 229.61 110.55">
  <defs>
    <style>
      .cls-1 {
        fill: none;
      }

      .cls-2 {
        fill: #6ebe28;
      }
    </style>
  </defs>
  <g id="Schutzraum">
    <rect class="cls-1" width="229.61" height="110.55"/>
  </g>
  <g id="Logo_sRGB" data-name="Logo sRGB">
    <g>
      <path d="M92.33,50.97l-1.92-3.63c-.58-1.09-.7-1.67-.7-1.67h-.06s.08.59.08,1.73v5.92h-1.25v-9.43h1.55l2.39,4.75c.32.64.42,1.06.42,1.06h.06s.1-.42.42-1.06l2.39-4.75h1.46v9.43h-1.25v-5.92c0-1.14.08-1.73.08-1.73h-.06s-.13.58-.7,1.67l-1.92,3.63h-.96Z"/>
      <path d="M98.76,49.58c0-2.51,1.3-3.83,3.3-3.83s3.3,1.31,3.3,3.83-1.3,3.94-3.3,3.94-3.3-1.41-3.3-3.94ZM99.96,49.58c0,1.97.7,2.98,2.1,2.98s2.1-1.01,2.1-2.98-.72-2.83-2.1-2.83-2.1.91-2.1,2.83Z"/>
      <path d="M107.93,47.35c.4-1.1,1.25-1.6,2.37-1.6,1.25,0,2.27.67,2.27,2.27v5.3h-1.22v-4.99c0-.94-.48-1.52-1.39-1.52-.98,0-1.87.51-1.87,2.21v4.31h-1.22v-7.39h.91l.14,1.42Z"/>
      <path d="M118.75,53.1c-.43.27-1.02.42-1.63.42-1.3,0-2.03-.71-2.03-1.99v-4.63h-1.07v-.98h1.07v-1.57l1.23-.16v1.73h2.19v.98h-2.21v4.4c0,.82.37,1.17.99,1.17.48,0,.8-.11,1.22-.38l.24,1.01Z"/>
      <path d="M125.34,51.74c0,.58.27.69.56.69.18,0,.29-.02.4-.06v.98c-.18.05-.38.1-.66.1-.82,0-1.34-.37-1.44-1.2-.38.93-1.28,1.28-2.19,1.28-1.3,0-2.22-.74-2.22-1.99,0-1.63,1.25-2.59,4.34-2.45v-.99c0-.99-.64-1.34-1.49-1.34s-1.42.42-1.49,1.23l-1.12-.16c.11-1.57,1.5-2.07,2.75-2.07s2.56.51,2.56,2.23v3.76ZM124.12,49.95c-2.14-.05-3.12.42-3.12,1.44,0,.67.43,1.18,1.3,1.18s1.82-.53,1.82-1.44v-1.18Z"/>
      <path d="M132.62,46.39c.37-.16.5-.59.58-1.12l1.09.38c-.11.7-.58,1.18-1.2,1.31.24.38.35.86.35,1.41,0,1.73-1.34,2.56-2.93,2.56-.38,0-.77-.05-.98-.13-.4.21-.56.46-.56.82,0,.46.3.67.86.67h1.71c1.66,0,2.54.67,2.54,2.02,0,1.89-2.03,2.38-3.91,2.38-1.58,0-3.17-.42-3.17-1.97,0-.98.72-1.66,1.89-1.76-.64-.08-.98-.53-.98-1.1s.29-1.04,1.06-1.23c-.88-.4-1.41-1.18-1.41-2.26,0-1.63,1.17-2.62,2.9-2.62.88,0,1.62.21,2.14.64ZM130.28,55.82c1.5,0,2.64-.3,2.64-1.34,0-.61-.32-1.1-1.38-1.1h-1.52c-1.2,0-1.84.4-1.84,1.28s.91,1.17,2.1,1.17ZM130.47,50.04c1.06,0,1.76-.53,1.76-1.68s-.7-1.71-1.76-1.7c-1.07.02-1.71.61-1.71,1.7,0,1.01.64,1.68,1.71,1.68Z"/>
      <path d="M139.72,50.81c.19,1.23.96,1.74,2.03,1.74s1.84-.51,1.84-1.49c0-.9-.43-1.34-2.08-1.97-1.23-.46-2.64-.99-2.64-2.8,0-1.91,1.49-2.61,2.9-2.61,1.67,0,2.93.69,3.07,2.5l-1.22.19c-.1-1.1-.82-1.71-1.84-1.71s-1.68.56-1.68,1.52c0,1.06.83,1.38,2.21,1.9,1.28.5,2.54,1.06,2.54,2.8s-1.42,2.62-3.15,2.62c-1.87,0-2.93-.77-3.17-2.5l1.18-.21Z"/>
      <path d="M150.47,53.1c-.43.27-1.03.42-1.63.42-1.3,0-2.03-.71-2.03-1.99v-4.63h-1.07v-.98h1.07v-1.57l1.23-.16v1.73h2.19v.98h-2.21v4.4c0,.82.37,1.17.99,1.17.48,0,.8-.11,1.22-.38l.24,1.01Z"/>
      <path d="M152.58,42.65c.48,0,.88.38.88.88,0,.46-.4.86-.88.86s-.85-.4-.85-.86c0-.5.38-.88.85-.88ZM153.21,45.93v7.39h-1.22v-7.39h1.22Z"/>
      <path d="M154.97,46.9v-.98h1.07v-.93c0-1.87,1.2-2.48,2.4-2.48.56,0,1.04.13,1.44.29l-.26,1.06c-.38-.21-.69-.32-1.15-.32-.77,0-1.22.42-1.22,1.52v.87h1.89v.98h-1.89v6.42h-1.22v-6.42h-1.07Z"/>
      <path d="M163.83,53.1c-.43.27-1.02.42-1.63.42-1.3,0-2.03-.71-2.03-1.99v-4.63h-1.07v-.98h1.07v-1.57l1.23-.16v1.73h2.19v.98h-2.21v4.4c0,.82.37,1.17.99,1.17.48,0,.8-.11,1.22-.38l.24,1.01Z"/>
      <path d="M169.54,52c-.38,1.1-1.15,1.52-2.27,1.52-1.34,0-2.24-.69-2.24-2.46v-5.12h1.22v5.01c0,1.17.45,1.68,1.42,1.68.83,0,1.84-.75,1.84-2.19v-4.5h1.22v7.39h-1.04l-.14-1.33Z"/>
      <path d="M173.86,47.35c.4-1.1,1.25-1.6,2.37-1.6,1.25,0,2.27.67,2.27,2.27v5.3h-1.22v-4.99c0-.94-.48-1.52-1.39-1.52-.98,0-1.87.51-1.87,2.21v4.31h-1.22v-7.39h.91l.14,1.42Z"/>
      <path d="M185.3,46.39c.37-.16.5-.59.58-1.12l1.09.38c-.11.7-.58,1.18-1.2,1.31.24.38.35.86.35,1.41,0,1.73-1.35,2.56-2.93,2.56-.38,0-.77-.05-.98-.13-.4.21-.56.46-.56.82,0,.46.3.67.87.67h1.71c1.66,0,2.54.67,2.54,2.02,0,1.89-2.03,2.38-3.91,2.38-1.58,0-3.17-.42-3.17-1.97,0-.98.72-1.66,1.89-1.76-.64-.08-.98-.53-.98-1.1s.29-1.04,1.06-1.23c-.88-.4-1.41-1.18-1.41-2.26,0-1.63,1.17-2.62,2.9-2.62.88,0,1.62.21,2.14.64ZM182.97,55.82c1.51,0,2.64-.3,2.64-1.34,0-.61-.32-1.1-1.38-1.1h-1.52c-1.2,0-1.84.4-1.84,1.28s.91,1.17,2.1,1.17ZM183.16,50.04c1.06,0,1.76-.53,1.76-1.68s-.7-1.71-1.76-1.7c-1.07.02-1.71.61-1.71,1.7,0,1.01.64,1.68,1.71,1.68Z"/>
      <path d="M96.03,61.4v6.29c0,2.51-1.79,3.33-3.79,3.33s-3.81-.82-3.81-3.33v-6.29h1.94v5.76c0,1.46.5,2.24,1.87,2.24s1.86-.78,1.86-2.24v-5.76h1.94Z"/>
      <path d="M102.38,65.38c-.24-.06-.46-.1-.77-.1-.91,0-1.95.54-1.95,2.03v3.51h-1.9v-7.39h1.65l.22,2.02c.3-1.3,1.1-2.27,2.95-2.18l-.19,2.11Z"/>
      <path d="M105.08,70.82h-1.31v-10.69h1.9v4.69c.4-1.12,1.34-1.57,2.38-1.57,1.81,0,2.87,1.33,2.87,3.7s-1.15,4.07-3.15,4.07c-1.27,0-1.97-.56-2.21-1.26l-.48,1.07ZM105.67,67.85c0,1.33.83,1.78,1.54,1.78.98,0,1.79-.8,1.79-2.5s-.64-2.34-1.65-2.34c-.88,0-1.68.67-1.68,1.87v1.18Z"/>
      <path d="M118.27,68.74c0,.53.22.69.54.69.18,0,.3-.05.45-.11v1.41c-.27.16-.62.22-1.07.22-.91,0-1.49-.35-1.68-1.17-.35.91-1.18,1.23-2.16,1.23-1.31,0-2.19-.75-2.19-2.02,0-1.65,1.31-2.56,4.21-2.4v-.78c0-.72-.35-1.11-1.01-1.11s-1.02.42-1.07,1.12l-1.87-.34c.11-1.57,1.46-2.24,3.04-2.24,1.7,0,2.82.72,2.82,2.38v3.11ZM116.36,67.67c-1.67-.05-2.31.37-2.31,1.12,0,.5.34.85.94.85s1.36-.34,1.36-1.1v-.87Z"/>
      <path d="M122.44,64.85c.4-1.11,1.23-1.6,2.37-1.6s2.19.67,2.19,2.32v5.25h-1.91v-4.58c0-.85-.29-1.38-1.09-1.38s-1.49.42-1.49,1.82v4.13h-1.9v-7.39h1.6l.22,1.42Z"/>
      <path d="M133.42,68.47l1.63.53c-.35,1.49-1.66,2.02-3.1,2.02-2.07,0-3.47-1.38-3.47-3.79s1.36-3.97,3.52-3.97c2.03,0,3.06,1.36,3.06,3.23,0,.35-.03.7-.11.99h-4.63c.05,1.23.62,2.06,1.7,2.06.66,0,1.15-.26,1.41-1.07ZM133.21,66.34c.02-.11.02-.18.02-.27,0-.79-.46-1.38-1.31-1.38s-1.44.64-1.55,1.65h2.85Z"/>
      <path d="M145.71,70.82c-.26-.24-.37-.56-.46-.95l-.37-1.49c-.21-.9-.64-1.06-1.44-1.06h-1.04v3.49h-1.94v-9.43h3.57c2.13,0,3.34.82,3.34,2.82,0,1.47-.9,2.26-2.1,2.35v.05c.88.13,1.34.5,1.58,1.41l.48,1.79c.11.38.24.71.53,1.01h-2.16ZM142.39,65.72h1.5c.98,0,1.49-.38,1.49-1.34,0-.85-.5-1.34-1.47-1.34h-1.52v2.69Z"/>
      <path d="M154.78,68.74c0,.53.22.69.54.69.18,0,.3-.05.45-.11v1.41c-.27.16-.62.22-1.07.22-.91,0-1.49-.35-1.68-1.17-.35.91-1.18,1.23-2.16,1.23-1.31,0-2.19-.75-2.19-2.02,0-1.65,1.31-2.56,4.21-2.4v-.78c0-.72-.35-1.11-1.01-1.11s-1.02.42-1.07,1.12l-1.87-.34c.11-1.57,1.46-2.24,3.04-2.24,1.7,0,2.82.72,2.82,2.38v3.11ZM150.26,60.16c.64,0,1.14.4,1.14,1.12s-.5,1.12-1.14,1.12c-.59,0-1.1-.42-1.1-1.12s.51-1.12,1.1-1.12ZM152.87,67.67c-1.66-.05-2.31.37-2.31,1.12,0,.5.34.85.95.85s1.36-.34,1.36-1.1v-.87ZM153.64,60.18c.64,0,1.12.4,1.12,1.12s-.48,1.1-1.12,1.1-1.11-.42-1.11-1.1.5-1.12,1.11-1.12Z"/>
      <path d="M161.51,69.46c-.29,1.03-.99,1.55-2.29,1.55s-2.22-.67-2.22-2.4v-5.19h1.9v4.71c0,.94.32,1.44,1.12,1.44.75,0,1.46-.62,1.46-2.05v-4.1h1.9v7.39h-1.65l-.22-1.36Z"/>
      <path d="M173.87,63.25c1.22,0,2.15.67,2.15,2.29v5.28h-1.91v-4.58c0-.85-.29-1.38-1.07-1.38-.72,0-1.36.46-1.36,1.82v4.13h-1.92v-4.58c0-.85-.27-1.38-1.06-1.38-.72,0-1.38.48-1.38,1.82v4.13h-1.91v-7.39h1.6l.22,1.42c.4-1.12,1.22-1.6,2.29-1.6.98,0,1.78.42,1.97,1.62.38-1.12,1.31-1.62,2.37-1.62Z"/>
      <path d="M182.5,68.47l1.63.53c-.35,1.49-1.66,2.02-3.11,2.02-2.06,0-3.47-1.38-3.47-3.79s1.36-3.97,3.52-3.97c2.03,0,3.06,1.36,3.06,3.23,0,.35-.03.7-.11.99h-4.63c.05,1.23.62,2.06,1.7,2.06.66,0,1.15-.26,1.41-1.07ZM182.3,66.34c.02-.11.02-.18.02-.27,0-.79-.46-1.38-1.31-1.38s-1.44.64-1.55,1.65h2.85Z"/>
    </g>
    <polygon class="cls-2" points="24.53 40.31 31.3 46.58 40.89 42.63 33.96 36.6 24.53 40.31"/>
    <polygon class="cls-2" points="72.08 29.78 64.7 24.53 56.43 27.78 45.93 47.85 52.31 54.47 63.7 33.23 63.7 33.23 72.08 29.78"/>
  </g>
</svg>